# xmcd
#
# Track frame offsets:
#	151
#	16390
#	30455
#	44610
#	61437
#	73244
#	86833
#	106140
#	120119
#	134930
#	148517
#	167636
#
# Disc length: 2465 seconds
#
# Revision: 1
# Processed by: cddbd v1.5.2PL0 Copyright (c) Steve Scherf et al.
# Submitted via: audiograbber 1.83.01
#
DISCID=aa099f0c
DTITLE=Lothar - Hver Dag Er En Særlig Dag
DYEAR=2007
DGENRE=Dansktop
TTITLE0=Go'dag, go'dag (2007)
TTITLE1=Sange så skønne som norden (2007)
TTITLE2=Min feriedrøm (2007)
TTITLE3=Svigtet (2007)
TTITLE4=Hver dag er en særlig dag (2007)
TTITLE5=Stjernehimlen (2007)
TTITLE6=Tilbage (2007)
TTITLE7=Skyggen (2007)
TTITLE8=Øl til alle (2007)
TTITLE9=Afskedsmelodi (2007)
TTITLE10=Fjerne horisonter (2007)
TTITLE11=Godnat min ven (2007)
EXTD=
EXTT0=
EXTT1=
EXTT2=
EXTT3=
EXTT4=
EXTT5=
EXTT6=
EXTT7=
EXTT8=
EXTT9=
EXTT10=
EXTT11=
PLAYORDER=
